<svg width="24" height="24" viewBox="0 0 24 24" fill="none" xmlns="http://www.w3.org/2000/svg">
<path d="M16.5075 8.29876C14.145 5.40188 13.1006 2.93813 12.5025 1.46813C12.3131 1.00501 11.685 1.00501 11.4975 1.46813C10.8994 2.93813 9.85501 5.40188 7.49251 8.29876C6.01313 10.1138 4.55438 12.7706 4.55438 15.3881C4.55438 19.8544 7.77751 22.8788 12 22.8788C16.2225 22.8788 19.4456 19.8525 19.4456 15.3881C19.4456 12.6675 17.9869 10.1138 16.5075 8.29876Z" fill="#FFA726"/>
<path d="M14.0588 14.97C15.2494 12.705 15.0806 10.4888 16.0219 10.8881C17.3006 11.4338 18.7163 14.2369 18.1856 16.7775C17.8069 18.5888 16.5844 19.6856 15.0263 19.1625C13.7681 18.7406 12.9863 17.01 14.0588 14.97Z" fill="#FFCB80"/>
</svg>
