<svg width="32" height="32" viewBox="0 0 32 32" fill="none" xmlns="http://www.w3.org/2000/svg">
<path d="M22.01 11.065C18.86 7.20249 17.4675 3.91749 16.67 1.95749C16.4175 1.33999 15.58 1.33999 15.33 1.95749C14.5325 3.91749 13.14 7.20249 9.99001 11.065C8.01751 13.485 6.07251 17.0275 6.07251 20.5175C6.07251 26.4725 10.37 30.505 16 30.505C21.63 30.505 25.9275 26.47 25.9275 20.5175C25.9275 16.89 23.9825 13.485 22.01 11.065Z" fill="#9DDEFB"/>
<path d="M18.745 19.96C20.3325 16.94 20.1075 13.985 21.3625 14.5175C23.0675 15.245 24.955 18.9825 24.2475 22.37C23.7425 24.785 22.1125 26.2475 20.035 25.55C18.3575 24.9875 17.315 22.68 18.745 19.96Z" fill="white"/>
</svg>
