<svg width="14" height="14" viewBox="0 0 14 14" fill="none" xmlns="http://www.w3.org/2000/svg">
<path d="M9.62939 4.84093C8.25127 3.15108 7.64205 1.7139 7.29314 0.856395C7.18268 0.586239 6.81627 0.586239 6.70689 0.856395C6.35799 1.7139 5.74877 3.15108 4.37064 4.84093C3.50768 5.89968 2.65674 7.44952 2.65674 8.97639C2.65674 11.5817 4.53689 13.3459 7.00002 13.3459C9.46314 13.3459 11.3433 11.5806 11.3433 8.97639C11.3433 7.38936 10.4924 5.89968 9.62939 4.84093Z" fill="#29B6F6"/>
<path d="M8.20093 8.73248C8.89546 7.41123 8.79702 6.11842 9.34608 6.35139C10.092 6.66967 10.9178 8.30483 10.6083 9.78686C10.3873 10.8434 9.67421 11.4833 8.7653 11.1781C8.0314 10.932 7.5753 9.92248 8.20093 8.73248Z" fill="#9DDDFB"/>
</svg>
