<svg width="40" height="40" viewBox="0 0 40 40" fill="none" xmlns="http://www.w3.org/2000/svg">
<g clip-path="url(#clip0_33_72)">
<path d="M20 40C31.0457 40 40 31.0457 40 20C40 8.95431 31.0457 0 20 0C8.95431 0 0 8.95431 0 20C0 31.0457 8.95431 40 20 40Z" fill="#29B6F6"/>
<path d="M27.6976 8.07286C23.2884 13.1957 18.9377 19.1864 19.3266 25.9259C19.5381 28.6768 20.1551 32.6645 18.7109 35.291L23.1691 39.7492C32.59 38.2492 39.8171 30.1712 39.9952 20.3705L27.6976 8.07286Z" fill="#0889C4"/>
<path d="M20 30.1347C24.9836 30.1347 29.0236 26.0947 29.0236 21.1111V11.1174C29.0236 8.80539 27.1494 6.93118 24.8373 6.93118H15.1627C12.8506 6.93118 10.9764 8.80539 10.9764 11.1174V21.1111C10.9764 26.0947 15.0164 30.1347 20 30.1347Z" fill="#345065"/>
<path d="M21.2891 27.5565H18.7109V35.2911H21.2891V27.5565Z" fill="#ECF0F1"/>
<path d="M15.7747 19.8221H24.2253C24.7395 19.8221 25.1564 19.4053 25.1564 18.8911V10.4404C25.1564 9.9262 24.7395 9.50937 24.2253 9.50937H15.7747C15.2605 9.50937 14.8436 9.9262 14.8436 10.4404V18.8911C14.8436 19.4053 15.2605 19.8221 15.7747 19.8221Z" fill="#ECF0F1"/>
<path d="M19.7656 21.2283H16.0287C15.3743 21.2283 14.8438 21.7588 14.8438 22.4132C14.8438 24.0024 16.1321 25.2908 17.7213 25.2908H19.7656V21.2283Z" fill="#AEC1CF"/>
<path d="M23.9715 21.2283H20.2344V25.2909H22.2787C23.8679 25.2909 25.1563 24.0026 25.1563 22.4133C25.1564 21.7588 24.6259 21.2283 23.9715 21.2283Z" fill="#AEC1CF"/>
<path d="M17.7778 15.5556C17.7778 14.3282 20.0001 11.1111 20.0001 11.1111C20.0001 11.1111 22.2223 14.3282 22.2223 15.5556C22.2223 16.7829 21.2274 17.7778 20.0001 17.7778C18.7727 17.7778 17.7778 16.7829 17.7778 15.5556Z" fill="#D35400"/>
</g>
<defs>
<clipPath id="clip0_33_72">
<rect width="40" height="40" fill="white"/>
</clipPath>
</defs>
</svg>
