<?xml version="1.0" encoding="UTF-8"?>
<!DOCTYPE svg PUBLIC "-//W3C//DTD SVG 1.1//EN" "http://www.w3.org/Graphics/SVG/1.1/DTD/svg11.dtd">
<!-- Creator: CorelDRAW -->
<svg xmlns="http://www.w3.org/2000/svg" xml:space="preserve" width="181.083mm" height="154.007mm" version="1.1" style="shape-rendering:geometricPrecision; text-rendering:geometricPrecision; image-rendering:optimizeQuality; fill-rule:evenodd; clip-rule:evenodd"
viewBox="0 0 18108.26 15400.69"
 xmlns:xlink="http://www.w3.org/1999/xlink"
 xmlns:xodm="http://www.corel.com/coreldraw/odm/2003">
 <defs>
  <style type="text/css">
   <![CDATA[
    .fil0 {fill:#DDF6FC}
    .fil2 {fill:red}
    .fil1 {fill:white}
   ]]>
  </style>
 </defs>
 <g id="Layer_x0020_1">
  <metadata id="CorelCorpID_0Corel-Layer"/>
  <g id="_1853230265280">
   <g>
    <path class="fil0" d="M13977.57 14730.39c-1338.57,-966.9 -2366.75,-3073.45 -3303.5,-4560.18 427.88,-142.82 809.32,-403.38 1098.09,-750.8 35.91,774.12 384.7,2024.76 2205.41,5310.98zm-5516.53 -8792.3c-1428.61,-3415.03 -5532.91,-6728.5 1344.87,-480.48 -494.1,20.99 -961.24,193.6 -1344.87,480.48z"/>
    <path class="fil0" d="M13675.96 1759.28c-366.38,2790.99 -4076.3,6362.16 -2941.96,7525.31 -3940.04,514.81 -6332.04,13352.9 -2716.93,-1569.56 1922.85,-2381.5 1582.59,406.41 5658.89,-5955.75z"/>
    <path class="fil0" d="M17407.47 7862.73c-1403.26,667.94 -3559.94,609.85 -5271.11,690.39 21.34,-71.24 39.75,-144 54.75,-218.33 60.88,-301.77 62.59,-601.72 13.36,-887.95 802.69,247.08 2213.53,430.73 5203,415.89zm-9908.11 677.36c-3743.87,-631.8 -9503.02,1737.18 71.8,-1575.74 -52.1,131.77 -93.32,269.96 -122.32,413.74 -80.65,399.77 -57.54,796.34 50.52,1162z"/>
   </g>
   <path class="fil1" d="M5226.13 514.72c2427.64,-910.43 5017.37,-572.36 7064.5,692.82 -1866.77,-835.98 -4050.71,-965.71 -6117.17,-190.73 -4163.31,1561.35 -6272.62,6202.11 -4711.27,10365.41 650.92,1735.68 1837.3,3113.92 3300.93,4018.47 -1894.22,-848.26 -3461.89,-2423.71 -4248.26,-4520.56 -1561.35,-4163.31 547.96,-8804.07 4711.27,-10365.41z"/>
   <polygon class="fil2" points="15832.87,2228.23 16698.57,2228.23 16698.57,3637.92 18108.26,3637.92 18108.26,4503.63 16698.57,4503.63 16698.57,5913.32 15832.87,5913.32 15832.87,4503.63 14423.18,4503.63 14423.18,3637.92 15832.87,3637.92 "/>
  </g>
 </g>
</svg>
